<svg xmlns="http://www.w3.org/2000/svg" width="73.066" height="70.775" viewBox="0 0 73.066 70.775">
  <g id="automotive" transform="translate(0 0)">
    <g id="Group_2470" data-name="Group 2470" transform="translate(0 0)">
      <g id="Group_2469" data-name="Group 2469" transform="translate(0 0)">
        <g id="Group_2463" data-name="Group 2463">
          <g id="Group_2458" data-name="Group 2458" transform="translate(39.705 23.202)">
            <path id="Path_2366" data-name="Path 2366" d="M315.554,206.729v-4.776a.83.83,0,0,0-.83-.83h-3.313a12.044,12.044,0,0,0-1.154-2.785L312.6,196a.83.83,0,0,0,0-1.174l-3.377-3.377a.83.83,0,0,0-1.174,0l-2.343,2.342a12.056,12.056,0,0,0-2.785-1.154v-3.313a.83.83,0,0,0-.83-.83h-4.776a.83.83,0,0,0-.83.83v3.313a12.042,12.042,0,0,0-2.785,1.154l-2.343-2.342a.83.83,0,0,0-1.174,0l-3.377,3.377a.83.83,0,0,0,0,1.174l2.342,2.343A12.062,12.062,0,0,0,288,201.124h-3.313a.83.83,0,0,0-.83.83v4.776a.83.83,0,0,0,.83.83H288a12.045,12.045,0,0,0,1.154,2.785l-2.342,2.343a.83.83,0,0,0,0,1.174l3.377,3.377a.83.83,0,0,0,1.174,0L293.7,214.9a12.06,12.06,0,0,0,2.785,1.153v3.313a.83.83,0,0,0,.83.83h4.776a.83.83,0,0,0,.83-.83V216.05a12.042,12.042,0,0,0,2.785-1.153l2.343,2.342a.83.83,0,0,0,1.174,0l3.377-3.377a.83.83,0,0,0,0-1.174l-2.342-2.343a12.06,12.06,0,0,0,1.154-2.785h3.313a.83.83,0,0,0,.83-.83ZM299.7,210.566a6.225,6.225,0,1,1,6.225-6.225A6.225,6.225,0,0,1,299.7,210.566Z" transform="translate(-283.023 -187.661)" fill="#c5c5ff"/>
            <g id="Group_2457" data-name="Group 2457">
              <path id="Path_2367" data-name="Path 2367" d="M297.921,216.853h-4.776a1.662,1.662,0,0,1-1.66-1.66v-2.7a12.929,12.929,0,0,1-1.8-.747l-1.907,1.906a1.649,1.649,0,0,1-1.174.486h0a1.648,1.648,0,0,1-1.174-.487l-3.377-3.377a1.66,1.66,0,0,1,0-2.347l1.906-1.907a12.933,12.933,0,0,1-.748-1.8h-2.7a1.662,1.662,0,0,1-1.66-1.66v-4.776a1.662,1.662,0,0,1,1.66-1.66h2.7a12.908,12.908,0,0,1,.748-1.8l-1.906-1.907a1.662,1.662,0,0,1,0-2.347l3.377-3.377a1.662,1.662,0,0,1,2.347,0l1.907,1.906a12.9,12.9,0,0,1,1.8-.748v-2.7a1.662,1.662,0,0,1,1.66-1.66h4.776a1.662,1.662,0,0,1,1.66,1.66v2.7a12.916,12.916,0,0,1,1.8.748l1.907-1.906a1.662,1.662,0,0,1,2.347,0l3.377,3.377a1.662,1.662,0,0,1,0,2.347l-1.906,1.907a12.9,12.9,0,0,1,.747,1.8h2.7a1.662,1.662,0,0,1,1.66,1.66v4.776a1.662,1.662,0,0,1-1.66,1.66h-2.7a12.908,12.908,0,0,1-.747,1.8l1.906,1.907a1.66,1.66,0,0,1,0,2.347l-3.377,3.377a1.66,1.66,0,0,1-2.347,0l-1.907-1.906a12.911,12.911,0,0,1-1.8.747v2.7A1.662,1.662,0,0,1,297.921,216.853Zm-8.391-6.956a.83.83,0,0,1,.411.109,11.235,11.235,0,0,0,2.593,1.074.83.83,0,0,1,.611.8v3.313h4.776V211.88a.83.83,0,0,1,.611-.8,11.214,11.214,0,0,0,2.593-1.074.831.831,0,0,1,1,.134l2.343,2.342,3.377-3.377-2.342-2.343a.83.83,0,0,1-.134-1,11.241,11.241,0,0,0,1.074-2.593.83.83,0,0,1,.8-.611h3.313v-4.776h-3.313a.83.83,0,0,1-.8-.611,11.243,11.243,0,0,0-1.074-2.594.83.83,0,0,1,.134-1l2.342-2.343-3.377-3.377-2.343,2.342a.831.831,0,0,1-1,.134,11.231,11.231,0,0,0-2.593-1.074.83.83,0,0,1-.611-.8v-3.312h-4.776v3.312a.83.83,0,0,1-.611.8,11.231,11.231,0,0,0-2.593,1.074.83.83,0,0,1-1-.134l-2.343-2.342-3.377,3.377,2.342,2.343a.83.83,0,0,1,.134,1,11.24,11.24,0,0,0-1.074,2.594.83.83,0,0,1-.8.611h-3.313v4.776h3.313a.83.83,0,0,1,.8.611,11.232,11.232,0,0,0,1.074,2.593.83.83,0,0,1-.134,1l-2.342,2.343,3.377,3.377,2.343-2.342A.828.828,0,0,1,289.531,209.9Zm6-2.67a7.048,7.048,0,1,1,6.738-4.96.83.83,0,1,1-1.585-.493,5.4,5.4,0,1,0-3.413,3.5.83.83,0,1,1,.535,1.571A7.046,7.046,0,0,1,295.534,207.227Z" transform="translate(-278.853 -183.492)" fill="#3335cf"/>
            </g>
          </g>
          <g id="Group_2460" data-name="Group 2460" transform="translate(17.442 44.583)">
            <path id="Path_2368" data-name="Path 2368" d="M169.567,334.076v-3.32a.83.83,0,0,0-.83-.83h-2.376a9.322,9.322,0,0,0-.893-2.155l1.68-1.68a.83.83,0,0,0,0-1.174l-2.348-2.348a.83.83,0,0,0-1.174,0l-1.68,1.68a9.326,9.326,0,0,0-2.155-.893V320.98a.83.83,0,0,0-.83-.83h-3.32a.83.83,0,0,0-.83.83v2.376a9.329,9.329,0,0,0-2.155.893l-1.68-1.68a.83.83,0,0,0-1.174,0l-2.348,2.348a.83.83,0,0,0,0,1.174l1.68,1.68a9.322,9.322,0,0,0-.893,2.155h-2.376a.83.83,0,0,0-.83.83v3.32a.83.83,0,0,0,.83.83h2.376a9.325,9.325,0,0,0,.893,2.155l-1.68,1.68a.83.83,0,0,0,0,1.174l2.348,2.348a.83.83,0,0,0,1.174,0l1.68-1.68a9.322,9.322,0,0,0,2.155.893v2.376a.83.83,0,0,0,.83.83h3.32a.83.83,0,0,0,.83-.83v-2.376a9.325,9.325,0,0,0,2.155-.893l1.68,1.68a.83.83,0,0,0,1.174,0l2.348-2.348a.83.83,0,0,0,0-1.174l-1.68-1.68a9.32,9.32,0,0,0,.893-2.155h2.376A.83.83,0,0,0,169.567,334.076ZM157.3,337.381a4.966,4.966,0,1,1,4.966-4.966A4.966,4.966,0,0,1,157.3,337.381Z" transform="translate(-144.205 -319.32)" fill="#fff"/>
            <g id="Group_2459" data-name="Group 2459">
              <path id="Path_2369" data-name="Path 2369" d="M154.79,341.34h-3.32a1.662,1.662,0,0,1-1.66-1.66v-1.763a10.2,10.2,0,0,1-1.171-.485l-1.247,1.247a1.662,1.662,0,0,1-2.347,0L142.7,336.33a1.662,1.662,0,0,1,0-2.347l1.247-1.247a10.147,10.147,0,0,1-.485-1.171h-1.763a1.662,1.662,0,0,1-1.66-1.66v-3.32a1.662,1.662,0,0,1,1.66-1.66h1.763a10.174,10.174,0,0,1,.485-1.172L142.7,322.5a1.662,1.662,0,0,1,0-2.348l2.348-2.348a1.662,1.662,0,0,1,2.347,0l1.247,1.247a10.159,10.159,0,0,1,1.171-.485v-1.763a1.662,1.662,0,0,1,1.66-1.66h3.32a1.662,1.662,0,0,1,1.66,1.66v1.763a10.174,10.174,0,0,1,1.171.485l1.247-1.247a1.662,1.662,0,0,1,2.347,0l2.348,2.348a1.662,1.662,0,0,1,0,2.347l-1.247,1.247a10.134,10.134,0,0,1,.485,1.172h1.763a1.662,1.662,0,0,1,1.66,1.66v3.32a1.662,1.662,0,0,1-1.66,1.66H162.8a10.164,10.164,0,0,1-.485,1.172l1.247,1.247a1.662,1.662,0,0,1,0,2.348l-2.348,2.348a1.662,1.662,0,0,1-2.348,0l-1.247-1.247a10.2,10.2,0,0,1-1.171.485v1.763a1.661,1.661,0,0,1-1.66,1.66Zm-6.305-5.758a.829.829,0,0,1,.411.109,8.515,8.515,0,0,0,1.964.813.83.83,0,0,1,.611.8v2.376h3.32V337.3a.83.83,0,0,1,.611-.8,8.5,8.5,0,0,0,1.964-.813.83.83,0,0,1,1,.134l1.68,1.68,2.348-2.348-1.68-1.68a.83.83,0,0,1-.134-1,8.5,8.5,0,0,0,.813-1.963.83.83,0,0,1,.8-.611h2.376v-3.32H162.19a.83.83,0,0,1-.8-.611,8.5,8.5,0,0,0-.813-1.964.83.83,0,0,1,.134-1l1.68-1.68-2.348-2.348-1.68,1.68a.83.83,0,0,1-1,.134,8.5,8.5,0,0,0-1.963-.813.83.83,0,0,1-.611-.8v-2.376h-3.32v2.376a.83.83,0,0,1-.611.8,8.5,8.5,0,0,0-1.963.813.829.829,0,0,1-1-.134l-1.68-1.68-2.348,2.348,1.68,1.68a.83.83,0,0,1,.134,1,8.506,8.506,0,0,0-.813,1.964.83.83,0,0,1-.8.611h-2.376v3.32h2.376a.83.83,0,0,1,.8.611,8.5,8.5,0,0,0,.813,1.963.83.83,0,0,1-.134,1l-1.68,1.68,2.348,2.348,1.68-1.68A.831.831,0,0,1,148.485,335.581Zm4.645-1.542a5.8,5.8,0,1,1,5.8-5.8A5.8,5.8,0,0,1,153.13,334.039Zm0-9.931a4.136,4.136,0,1,0,4.135,4.135A4.14,4.14,0,0,0,153.13,324.108Z" transform="translate(-140.034 -315.148)" fill="#ff7b00"/>
            </g>
          </g>
          <g id="Group_2462" data-name="Group 2462">
            <path id="Path_2370" data-name="Path 2370" d="M79.558,68.733V61.788a.83.83,0,0,0-.83-.83H74.019a16.107,16.107,0,0,0-1.542-3.724l3.329-3.33a.83.83,0,0,0,0-1.174L70.9,47.82a.83.83,0,0,0-1.174,0l-3.33,3.329a16.122,16.122,0,0,0-3.724-1.542V44.9a.83.83,0,0,0-.83-.83H54.893a.83.83,0,0,0-.83.83v4.709a16.107,16.107,0,0,0-3.724,1.542l-3.33-3.329a.83.83,0,0,0-1.174,0l-4.91,4.91a.83.83,0,0,0,0,1.174l3.329,3.33a16.114,16.114,0,0,0-1.542,3.724H38a.83.83,0,0,0-.83.83v6.944a.83.83,0,0,0,.83.83h4.709a16.113,16.113,0,0,0,1.542,3.724l-3.329,3.33a.83.83,0,0,0,0,1.174L45.836,82.7a.83.83,0,0,0,1.174,0l3.33-3.329a16.114,16.114,0,0,0,3.724,1.542v4.709a.83.83,0,0,0,.83.83h6.944a.83.83,0,0,0,.83-.83V80.914a16.114,16.114,0,0,0,3.724-1.542l3.33,3.329a.83.83,0,0,0,1.174,0l4.911-4.911a.83.83,0,0,0,0-1.174l-3.329-3.33a16.121,16.121,0,0,0,1.542-3.724h4.709a.83.83,0,0,0,.83-.83ZM58.365,74.651a9.39,9.39,0,1,1,9.39-9.39A9.39,9.39,0,0,1,58.365,74.651Z" transform="translate(-36.343 -43.238)" fill="#fff"/>
            <g id="Group_2461" data-name="Group 2461">
              <path id="Path_2371" data-name="Path 2371" d="M57.668,83.113H50.723a1.662,1.662,0,0,1-1.66-1.66V77.365a16.953,16.953,0,0,1-2.746-1.137l-2.891,2.89a1.662,1.662,0,0,1-2.348,0l-4.911-4.91a1.662,1.662,0,0,1,0-2.347l2.89-2.891a16.976,16.976,0,0,1-1.137-2.746H33.833a1.662,1.662,0,0,1-1.66-1.66V57.618a1.662,1.662,0,0,1,1.66-1.66h4.088a16.962,16.962,0,0,1,1.137-2.746l-2.89-2.891a1.662,1.662,0,0,1,0-2.347l4.911-4.91a1.663,1.663,0,0,1,2.348,0l2.891,2.89a16.954,16.954,0,0,1,2.746-1.137V40.728a1.662,1.662,0,0,1,1.66-1.66h6.944a1.662,1.662,0,0,1,1.66,1.66v4.088a16.976,16.976,0,0,1,2.746,1.137l2.891-2.89a1.662,1.662,0,0,1,2.347,0l4.911,4.91a1.662,1.662,0,0,1,0,2.347l-2.89,2.891a16.962,16.962,0,0,1,1.137,2.746h4.088a1.662,1.662,0,0,1,1.66,1.66v6.944a1.662,1.662,0,0,1-1.66,1.66H70.47a16.977,16.977,0,0,1-1.137,2.746l2.89,2.891a1.662,1.662,0,0,1,0,2.347l-4.911,4.911a1.66,1.66,0,0,1-2.347,0l-2.891-2.89a16.948,16.948,0,0,1-2.746,1.137v4.088a1.661,1.661,0,0,1-1.66,1.66Zm-11.5-8.741a.83.83,0,0,1,.411.109,15.307,15.307,0,0,0,3.532,1.463.83.83,0,0,1,.611.8v4.709h6.944V76.744a.83.83,0,0,1,.611-.8,15.29,15.29,0,0,0,3.532-1.463.831.831,0,0,1,1,.134l3.33,3.329,4.911-4.911L67.719,69.7a.83.83,0,0,1-.134-1,15.3,15.3,0,0,0,1.463-3.532.83.83,0,0,1,.8-.611h4.709V57.618H69.849a.83.83,0,0,1-.8-.611,15.3,15.3,0,0,0-1.463-3.532.83.83,0,0,1,.134-1l3.329-3.33-4.911-4.91-3.33,3.329a.831.831,0,0,1-1,.134,15.3,15.3,0,0,0-3.532-1.463.83.83,0,0,1-.611-.8V40.728H50.723v4.709a.83.83,0,0,1-.611.8A15.3,15.3,0,0,0,46.58,47.7a.83.83,0,0,1-1-.134l-3.33-3.329-4.91,4.91,3.329,3.33a.83.83,0,0,1,.134,1,15.3,15.3,0,0,0-1.463,3.532.83.83,0,0,1-.8.611H33.833v6.944h4.709a.83.83,0,0,1,.8.611,15.3,15.3,0,0,0,1.463,3.532.83.83,0,0,1-.134,1l-3.329,3.33,4.911,4.911,3.33-3.329a.83.83,0,0,1,.587-.243ZM54.2,71.31a10.231,10.231,0,0,1-4.908-1.254.83.83,0,0,1,.8-1.455,8.561,8.561,0,1,0-4.451-7.51,8.471,8.471,0,0,0,.887,3.8.83.83,0,0,1-1.487.737,10.118,10.118,0,0,1-1.06-4.533A10.22,10.22,0,1,1,54.2,71.31Z" transform="translate(-32.173 -39.068)" fill="#3335cf"/>
            </g>
          </g>
        </g>
        <g id="Group_2466" data-name="Group 2466" transform="translate(1.7 1.992)">
          <path id="Path_2374" data-name="Path 2374" d="M207.9,27.008a2.2,2.2,0,1,1,2.2-2.2A2.2,2.2,0,0,1,207.9,27.008Zm0-2.731a.535.535,0,1,0,.535.536A.536.536,0,0,0,207.9,24.277Z" transform="translate(-205.701 -22.617)" fill="#c5c5ff"/>
        </g>
        <g id="Group_2467" data-name="Group 2467" transform="translate(45.742 11.586)">
          <path id="Path_2375" data-name="Path 2375" d="M315.5,115.821a.827.827,0,0,1-.587-.243l-1.874-1.874a.83.83,0,0,1,0-1.174l1.874-1.874a.83.83,0,0,1,1.174,0l1.874,1.874a.83.83,0,0,1,0,1.174l-1.874,1.874A.827.827,0,0,1,315.5,115.821Zm-.7-2.7.7.7.7-.7-.7-.7Z" transform="translate(-312.792 -110.412)" fill="#6583fe"/>
        </g>
        <g id="Group_2468" data-name="Group 2468" transform="translate(1.7 45.366)">
          <path id="Path_2376" data-name="Path 2376" d="M45.12,323.057a.83.83,0,0,1-.587-.243l-1.874-1.874a.83.83,0,0,1,0-1.174l1.874-1.874a.83.83,0,0,1,1.174,0l1.874,1.874a.83.83,0,0,1,0,1.174l-1.874,1.875A.83.83,0,0,1,45.12,323.057Zm-.7-2.7.7.7.7-.7-.7-.7Z" transform="translate(-42.415 -317.648)" fill="#6583fe"/>
        </g>
        <path id="Path_2377" data-name="Path 2377" d="M19.787,140.5a1.377,1.377,0,0,0,1.377-1.377v-1.377h1.377a1.377,1.377,0,1,0,0-2.754H21.164v-1.377a1.377,1.377,0,1,0-2.754,0v1.377H17.033a1.377,1.377,0,1,0,0,2.754H18.41v1.377A1.377,1.377,0,0,0,19.787,140.5Z" transform="translate(40.662 -129.986)" fill="#ff7b00"/>
      </g>
    </g>
  </g>
</svg>
