<svg id="Group_44490" data-name="Group 44490" xmlns="http://www.w3.org/2000/svg" width="157.047" height="25.205" viewBox="0 0 157.047 25.205">
  <path id="Path_26744" data-name="Path 26744" d="M70.089,74.366A3.491,3.491,0,0,0,70,73.394a1.424,1.424,0,0,0-.392-.708,1.229,1.229,0,0,0-.856-.267,2.267,2.267,0,0,0-1.22.321,2.574,2.574,0,0,0-.847.967,7.6,7.6,0,0,0-.6,1.569c-.173.654-.33,1.422-.486,2.309s-.281,1.743-.347,2.411a6.667,6.667,0,0,0,0,1.649,1.5,1.5,0,0,0,.472.95,1.558,1.558,0,0,0,1.006.3,1.851,1.851,0,0,0,1.569-.847,6.8,6.8,0,0,0,.927-2.718h3.73a8.122,8.122,0,0,1-2.144,4.563,6.524,6.524,0,0,1-4.711,1.569,7.7,7.7,0,0,1-2.491-.353,2.927,2.927,0,0,1-1.569-1.271,5.388,5.388,0,0,1-.651-2.459,16.754,16.754,0,0,1,.3-3.824,15.63,15.63,0,0,1,1.14-3.878,7.873,7.873,0,0,1,1.7-2.457,5.466,5.466,0,0,1,2.175-1.288,8.63,8.63,0,0,1,2.553-.37,4.329,4.329,0,0,1,3.8,1.569,5.674,5.674,0,0,1,.614,4.288H69.964a8.7,8.7,0,0,0,.125-1.052" transform="translate(-61.387 -65.021)" fill="#f37a20"/>
  <path id="Path_26745" data-name="Path 26745" d="M73.144,67.964,69.6,88.123H65.669l3.557-20.158Z" transform="translate(-53.494 -67.963)" fill="#f37a20"/>
  <path id="Path_26746" data-name="Path 26746" d="M69.416,74.1a8.215,8.215,0,0,1,1.461-2.5,5.756,5.756,0,0,1,2.113-1.49A7.466,7.466,0,0,1,75.9,69.59a6.575,6.575,0,0,1,2.826.469,3.2,3.2,0,0,1,1.572,1.51,5.826,5.826,0,0,1,.512,2.511,18.949,18.949,0,0,1-.31,3.472A18.436,18.436,0,0,1,79.58,81a8.217,8.217,0,0,1-1.487,2.468,5.393,5.393,0,0,1-2.1,1.484,8.179,8.179,0,0,1-2.9.478,6.963,6.963,0,0,1-2.8-.392,3.024,3.024,0,0,1-1.567-1.467,5.647,5.647,0,0,1-.523-2.513,19.614,19.614,0,0,1,.33-3.486,18.817,18.817,0,0,1,.887-3.463m2.658,5.59a6.526,6.526,0,0,0,0,1.7,1.907,1.907,0,0,0,.438,1.1,1.348,1.348,0,0,0,1.058.4,2.052,2.052,0,0,0,1.854-1.248,14.618,14.618,0,0,0,1.149-4.091,13.018,13.018,0,0,0,.264-4.091,1.334,1.334,0,0,0-1.416-1.248h0a1.8,1.8,0,0,0-1.194.4,3.04,3.04,0,0,0-.793,1.1,7.931,7.931,0,0,0-.563,1.7c-.156.66-.3,1.373-.444,2.144s-.27,1.484-.35,2.144" transform="translate(-48.835 -64.986)" fill="#f37a20"/>
  <path id="Path_26747" data-name="Path 26747" d="M80.473,83.124a4.7,4.7,0,0,1-1.894,1.609,5.731,5.731,0,0,1-2.354.48,3.376,3.376,0,0,1-2.692-.975c-.56-.651-.7-1.734-.432-3.267l2-11.259h3.926L77.153,80.187a2.389,2.389,0,0,0,.108,1.649,1.322,1.322,0,0,0,1.186.463c1.376,0,2.209-.833,2.5-2.513L82.7,69.713h3.926L83.945,84.9H80.223l.313-1.774Z" transform="translate(-40.038 -64.74)" fill="#f37a20"/>
  <path id="Path_26748" data-name="Path 26748" d="M85.364,86.513a5.072,5.072,0,0,1-1.712,1.5,4.743,4.743,0,0,1-2.064.426,3.159,3.159,0,0,1-3.213-1.84c-.535-1.225-.557-3.241-.054-6.07a14.2,14.2,0,0,1,2.206-6.107,4.648,4.648,0,0,1,3.864-1.885,3.239,3.239,0,0,1,1.788.455,3.306,3.306,0,0,1,1.163,1.359H87.4l1.132-6.386h3.926L88.9,88.122h-3.73l.29-1.569Zm-3.423-2.246a1.291,1.291,0,0,0,1.311,1.265l.119-.009a1.987,1.987,0,0,0,1.9-1.257,15.126,15.126,0,0,0,1.038-3.739,13.628,13.628,0,0,0,.281-3.736,1.312,1.312,0,0,0-1.356-1.265c-.034,0-.071,0-.105.009a1.959,1.959,0,0,0-1.868,1.257,14.724,14.724,0,0,0-1.043,3.736,13.425,13.425,0,0,0-.276,3.739" transform="translate(-30.844 -67.964)" fill="#f37a20"/>
  <path id="Path_26749" data-name="Path 26749" d="M88.59,78.649h.054L93.546,73h4.27l-5.425,5.954,3.383,9.155H91.527l-2.135-6.2-1.712,1.8-.788,4.4H83.046L86.58,68.055h3.878Z" transform="translate(-21.466 -67.796)" fill="#0c4fa2"/>
  <path id="Path_26750" data-name="Path 26750" d="M89.76,74.326a5.865,5.865,0,0,1,.785-2.206,5.045,5.045,0,0,1,1.413-1.439,5.749,5.749,0,0,1,1.831-.785,9.181,9.181,0,0,1,2.1-.236A8.882,8.882,0,0,1,98.64,70a3.065,3.065,0,0,1,1.493.95,2.7,2.7,0,0,1,.535,1.476,7.788,7.788,0,0,1-.117,1.871l-1.4,7.944a11.663,11.663,0,0,0-.2,1.658,5.28,5.28,0,0,0,.156,1.265h-3.7a2.752,2.752,0,0,1-.159-.785,4.349,4.349,0,0,0-.046-.785h-.057a4.243,4.243,0,0,1-1.828,1.569,6.77,6.77,0,0,1-2.357.353,3.387,3.387,0,0,1-1.649-.353,2.245,2.245,0,0,1-.955-.975,3.686,3.686,0,0,1-.37-1.387,6.083,6.083,0,0,1,.071-1.524,7.22,7.22,0,0,1,.549-1.845,4.721,4.721,0,0,1,.918-1.319,5.025,5.025,0,0,1,1.342-.913,10.584,10.584,0,0,1,1.845-.643l2.294-.6a2.871,2.871,0,0,0,1.311-.611,2.025,2.025,0,0,0,.543-1.154,1.867,1.867,0,0,0-.165-1.359,1.451,1.451,0,0,0-1.305-.495,1.98,1.98,0,0,0-1.444.535,2.535,2.535,0,0,0-.7,1.427l-.08.424H89.689ZM95.327,78.1a6.933,6.933,0,0,1-.856.267,3.656,3.656,0,0,0-1.837.839,2.8,2.8,0,0,0-.785,1.572,2.859,2.859,0,0,0,.068,1.484.969.969,0,0,0,1.015.62,3.1,3.1,0,0,0,.839-.125,2.921,2.921,0,0,0,.847-.409,2.8,2.8,0,0,0,.7-.731,2.643,2.643,0,0,0,.418-1.066l.526-2.977a4.727,4.727,0,0,1-.935.526" transform="translate(-12.395 -64.847)" fill="#0c4fa2"/>
  <path id="Path_26751" data-name="Path 26751" d="M99.062,70.051l-.276,1.569h.063a5.648,5.648,0,0,1,1.9-1.49,5.425,5.425,0,0,1,2.26-.449,3.436,3.436,0,0,1,2.152.62,2.4,2.4,0,0,1,.87,1.768h.057a4.39,4.39,0,0,1,1.766-1.805,5.105,5.105,0,0,1,2.482-.606,2.842,2.842,0,0,1,2.647,1.163,4.881,4.881,0,0,1,.313,3.361l-1.93,10.992h-3.881l1.862-10.56a2.358,2.358,0,0,0-.085-1.461,1.116,1.116,0,0,0-1.086-.5,2.2,2.2,0,0,0-1.569.62,3.433,3.433,0,0,0-.9,1.965l-1.751,9.94h-3.878l1.862-10.56a2.382,2.382,0,0,0-.071-1.5,1.1,1.1,0,0,0-1.078-.5,2.216,2.216,0,0,0-1.569.623,3.459,3.459,0,0,0-.887,1.962l-1.76,9.94h-3.9l2.67-15.083Z" transform="translate(-3.7 -64.842)" fill="#0c4fa2"/>
  <path id="Path_26752" data-name="Path 26752" d="M112.774,83.136a4.746,4.746,0,0,1-1.885,1.569,5.685,5.685,0,0,1-2.354.481,3.342,3.342,0,0,1-2.678-.975c-.549-.643-.691-1.726-.424-3.241l2-11.174h3.872l-1.831,10.42a2.415,2.415,0,0,0,.1,1.641,1.326,1.326,0,0,0,1.186.463q2.051,0,2.488-2.5L115.02,69.8H118.9L116.228,84.9h-3.7l.3-1.766Z" transform="translate(19.555 -64.587)" fill="#0c4fa2"/>
  <path id="Path_26753" data-name="Path 26753" d="M113.687,80.722a2.064,2.064,0,0,0,.236,1.569,1.566,1.566,0,0,0,1.4.606,2.523,2.523,0,0,0,1.515-.446,2.075,2.075,0,0,0,.788-1.351,1.234,1.234,0,0,0-.227-1.109,2.585,2.585,0,0,0-.881-.606l-2.545-.981a4.039,4.039,0,0,1-2.135-1.569,3.666,3.666,0,0,1-.353-2.63,5.649,5.649,0,0,1,.62-1.751,4.585,4.585,0,0,1,1.194-1.444,6.029,6.029,0,0,1,1.9-.989,8.435,8.435,0,0,1,2.607-.361,4.987,4.987,0,0,1,3.708,1.123,3.477,3.477,0,0,1,.705,3.139l-.108.62h-3.489a2.841,2.841,0,0,0-.068-1.726c-.19-.37-.606-.549-1.242-.549a2.357,2.357,0,0,0-1.351.407,1.761,1.761,0,0,0-.785,1.225,1.41,1.41,0,0,0,.173,1,2.15,2.15,0,0,0,1.2.788l2.192.785a4.149,4.149,0,0,1,2.3,1.618,3.916,3.916,0,0,1,.281,2.71,5.505,5.505,0,0,1-.785,2.087,5.245,5.245,0,0,1-1.422,1.476,5.514,5.514,0,0,1-1.891.85,9.79,9.79,0,0,1-2.3.259,9.4,9.4,0,0,1-2.656-.316,3.144,3.144,0,0,1-1.569-.924,2.714,2.714,0,0,1-.62-1.5,7.217,7.217,0,0,1,.094-1.979l.094-.535h3.486Z" transform="translate(28.3 -64.843)" fill="#0c4fa2"/>
  <path id="Path_26754" data-name="Path 26754" d="M107.112,70.1l-.281,1.569h.1a5.35,5.35,0,0,1,1.712-1.569,4.442,4.442,0,0,1,2.064-.463,3.147,3.147,0,0,1,3.145,1.956q.78,1.859.045,6.076a13.777,13.777,0,0,1-2.184,6.039,4.655,4.655,0,0,1-3.833,1.831,3.583,3.583,0,0,1-1.8-.409,3.036,3.036,0,0,1-1.163-1.311h-.054L103.76,90.1h-3.9l3.52-19.968Zm-1.433,11.276a1.288,1.288,0,0,0,1.331,1.257.841.841,0,0,0,.119-.009,1.96,1.96,0,0,0,1.859-1.248,15,15,0,0,0,1.038-3.722,13.413,13.413,0,0,0,.276-3.722A1.28,1.28,0,0,0,109,72.677a.805.805,0,0,0-.117.009,1.98,1.98,0,0,0-1.894,1.262,15,15,0,0,0-1.035,3.722,13.206,13.206,0,0,0-.273,3.708" transform="translate(9.535 -64.895)" fill="#0c4fa2"/>
  <path id="Path_26755" data-name="Path 26755" d="M117.43,69.086a2.783,2.783,0,0,1,1.336.353,2.518,2.518,0,0,1,1.012,1.006,2.715,2.715,0,0,1,0,2.718,2.547,2.547,0,0,1-1,1,2.753,2.753,0,0,1-2.7,0,2.525,2.525,0,0,1-1-1,2.729,2.729,0,0,1,0-2.718,2.557,2.557,0,0,1,1.021-1.006,2.772,2.772,0,0,1,1.333-.353m0,.455a2.289,2.289,0,0,0-1.115.293,2.11,2.11,0,0,0-.847.839,2.26,2.26,0,0,0-.307,1.137,2.311,2.311,0,0,0,.3,1.123,2.228,2.228,0,0,0,.839.842,2.294,2.294,0,0,0,2.263,0,2.155,2.155,0,0,0,.833-.842,2.3,2.3,0,0,0,0-2.26,2.135,2.135,0,0,0-.85-.839,2.32,2.32,0,0,0-1.115-.293m-1.194,3.77V70.382h1.021a2.379,2.379,0,0,1,.788.085.725.725,0,0,1,.367.284.771.771,0,0,1-.094.981.841.841,0,0,1-.6.267.882.882,0,0,1,.25.156,3.573,3.573,0,0,1,.432.58l.353.574h-.574l-.259-.463a2.344,2.344,0,0,0-.495-.682.623.623,0,0,0-.375-.094h-.284v1.24Zm.472-1.649h.549a.976.976,0,0,0,.566-.117.439.439,0,0,0,.151-.33.4.4,0,0,0-.08-.23.463.463,0,0,0-.2-.156,1.55,1.55,0,0,0-.472-.046h-.54Z" transform="translate(36.904 -65.896)"/>
</svg>
